<svg xmlns="http://www.w3.org/2000/svg" width="39" height="39" viewBox="0 0 39 39" fill="none"><circle cx="19.5" cy="19.5" r="19.5" fill="#FF981F"></circle><path d="M32.0835 19.6456C32.0466 19.5592 31.1532 17.5041 29.1673 15.4445C26.521 12.7003 23.1787 11.25 19.5 11.25C15.8212 11.25 12.4789 12.7003 9.83272 15.4445C7.84675 17.5041 6.94921 19.5625 6.91651 19.6456C6.86854 19.7575 6.84375 19.8786 6.84375 20.0011C6.84375 20.1236 6.86854 20.2447 6.91651 20.3566C6.95343 20.443 7.84675 22.497 9.83272 24.5566C12.4789 27.2997 15.8212 28.75 19.5 28.75C23.1787 28.75 26.521 27.2997 29.1673 24.5566C31.1532 22.497 32.0466 20.443 32.0835 20.3566C32.1314 20.2447 32.1562 20.1236 32.1562 20.0011C32.1562 19.8786 32.1314 19.7575 32.0835 19.6456ZM19.5 27C16.2537 27 13.4176 25.7761 11.0699 23.3633C10.1066 22.3698 9.28702 21.237 8.63671 20C9.28684 18.7629 10.1064 17.63 11.0699 16.6367C13.4176 14.2239 16.2537 13 19.5 13C22.7463 13 25.5824 14.2239 27.9301 16.6367C28.8953 17.6298 29.7166 18.7627 30.3685 20C29.6081 21.4722 26.2953 27 19.5 27ZM19.5 14.75C18.4987 14.75 17.5199 15.0579 16.6874 15.6348C15.8549 16.2117 15.206 17.0316 14.8228 17.9909C14.4397 18.9502 14.3394 20.0058 14.5348 21.0242C14.7301 22.0426 15.2123 22.9781 15.9203 23.7123C16.6283 24.4465 17.5303 24.9466 18.5123 25.1491C19.4944 25.3517 20.5123 25.2477 21.4373 24.8504C22.3624 24.453 23.153 23.7801 23.7093 22.9167C24.2656 22.0534 24.5625 21.0384 24.5625 20C24.5611 18.6081 24.0273 17.2735 23.0782 16.2893C22.1291 15.305 20.8422 14.7514 19.5 14.75ZM19.5 23.5C18.8325 23.5 18.18 23.2947 17.6249 22.9101C17.0699 22.5256 16.6373 21.9789 16.3819 21.3394C16.1265 20.6999 16.0596 19.9961 16.1898 19.3172C16.3201 18.6383 16.6415 18.0146 17.1135 17.5251C17.5855 17.0356 18.1869 16.7023 18.8416 16.5673C19.4962 16.4322 20.1748 16.5015 20.7915 16.7664C21.4082 17.0313 21.9353 17.4799 22.3062 18.0555C22.677 18.6311 22.875 19.3078 22.875 20C22.875 20.9283 22.5194 21.8185 21.8865 22.4749C21.2535 23.1313 20.3951 23.5 19.5 23.5Z" fill="white"></path></svg>